<?xml version="1.0" encoding="utf-8"?>
<!-- Generator: Adobe Illustrator 16.0.0, SVG Export Plug-In . SVG Version: 6.00 Build 0)  -->
<!DOCTYPE svg PUBLIC "-//W3C//DTD SVG 1.1//EN" "http://www.w3.org/Graphics/SVG/1.1/DTD/svg11.dtd">
<svg version="1.1" id="Layer_1" xmlns="http://www.w3.org/2000/svg" xmlns:xlink="http://www.w3.org/1999/xlink" x="0px" y="0px"
	 width="485.672px" height="36.944px" viewBox="234.726 185.824 485.672 36.944"
	 enable-background="new 234.726 185.824 485.672 36.944" xml:space="preserve">
<g>
	<path d="M234.903,210.843l1.912-3.371c0.324-0.519,1.102-0.454,1.394-0.259c0.162,0.097,3.079,2.236,5.769,2.236
		c1.62,0,2.819-1.005,2.819-2.431c0-1.718-1.426-3.014-4.181-4.116c-3.5-1.394-7.875-4.116-7.875-8.977
		c0-4.019,3.144-8.102,9.398-8.102c4.246,0,7.486,2.171,8.718,3.046c0.486,0.292,0.421,1.005,0.259,1.296l-2.074,3.144
		c-0.292,0.454-1.004,0.81-1.394,0.519c-0.356-0.194-3.338-2.431-5.801-2.431c-1.458,0-2.56,0.972-2.56,2.074
		c0,1.491,1.231,2.658,4.44,3.954c3.176,1.264,8.231,3.727,8.231,9.269c0,4.181-3.63,8.426-9.593,8.426
		c-5.282,0-8.231-2.204-9.139-3.143C234.708,211.588,234.579,211.426,234.903,210.843z"/>
	<path d="M266.954,187.023c0-0.421,0.324-0.778,0.778-0.778h16.852c0.454,0,0.778,0.356,0.778,0.778v4.44
		c0,0.421-0.324,0.778-0.778,0.778h-11.278v5.056h9.269c0.421,0,0.778,0.356,0.778,0.778v4.439c0,0.454-0.357,0.778-0.778,0.778
		h-9.269v5.477h11.278c0.454,0,0.778,0.356,0.778,0.778v4.44c0,0.421-0.324,0.777-0.778,0.777h-16.852
		c-0.454,0-0.778-0.356-0.778-0.777V187.023z"/>
	<path d="M311.449,185.824c8.134,0,14.648,6.546,14.648,14.681c0,5.282-3.046,10.079-7.519,12.801l5.25,8.231
		c0.324,0.583,0,1.231-0.648,1.231h-5.477c-0.324,0-0.519-0.194-0.648-0.421l-4.311-7.292c-0.486,0.032-0.972,0.032-1.264,0.032
		c-8.134,0-14.616-6.481-14.616-14.616S303.315,185.824,311.449,185.824z M311.449,208.606c4.472,0,8.134-3.662,8.134-8.102
		c0-4.473-3.662-8.167-8.134-8.167c-4.44,0-8.102,3.694-8.102,8.167C303.347,204.944,307.009,208.606,311.449,208.606z"/>
	<path d="M338.866,187.023c0-0.421,0.356-0.778,0.778-0.778h4.991c0.454,0,0.778,0.356,0.778,0.778v16.463
		c0,2.852,2.106,5.12,4.991,5.12c2.917,0,5.088-2.269,5.088-5.12v-16.463c0-0.421,0.324-0.778,0.778-0.778h4.991
		c0.421,0,0.778,0.356,0.778,0.778v16.787c0,6.19-5.218,11.31-11.634,11.31c-6.384,0-11.537-5.12-11.537-11.31V187.023z"/>
	<path d="M376.718,187.023c0-0.421,0.324-0.778,0.777-0.778h16.852c0.454,0,0.778,0.356,0.778,0.778v4.44
		c0,0.421-0.324,0.778-0.778,0.778h-11.278v5.056h9.269c0.421,0,0.778,0.356,0.778,0.778v4.439c0,0.454-0.356,0.778-0.778,0.778
		h-9.269v5.477h11.278c0.454,0,0.778,0.356,0.778,0.778v4.44c0,0.421-0.324,0.777-0.778,0.777h-16.852
		c-0.454,0-0.777-0.356-0.777-0.777V187.023z"/>
	<path d="M408.704,187.023c0-0.421,0.323-0.778,0.777-0.778h4.829c0.421,0,0.777,0.356,0.777,0.778v21.713h9.689
		c0.454,0,0.778,0.356,0.778,0.777v4.44c0,0.421-0.324,0.778-0.778,0.778h-15.296c-0.454,0-0.777-0.356-0.777-0.778V187.023
		L408.704,187.023z"/>
	<path d="M450.477,186.407c0.098-0.324,0.422-0.583,0.746-0.583h0.647c0.292,0,0.616,0.194,0.681,0.454l8.037,22.426
		c0.098,0,0.13,0,0.194,0l7.94-22.426c0.097-0.259,0.421-0.454,0.68-0.454h0.648c0.324,0,0.648,0.259,0.745,0.583l5.25,27.32
		c0.13,0.583-0.129,0.972-0.745,0.972h-1.62c-0.324,0-0.648-0.292-0.745-0.583l-3.63-20.935c-0.032,0-0.13,0-0.162,0l-7.486,21.486
		c-0.097,0.259-0.453,0.454-0.681,0.454h-0.745c-0.259,0-0.616-0.194-0.681-0.454L452,193.181c-0.032,0-0.13,0-0.162,0
		l-3.532,20.935c-0.032,0.292-0.421,0.583-0.745,0.583h-1.621c-0.615,0-0.842-0.421-0.745-0.972L450.477,186.407z"/>
	<path d="M481.944,187.023c0-0.421,0.356-0.778,0.778-0.778h1.555c0.454,0,0.778,0.356,0.778,0.778v16.949
		c0,4.634,2.884,8.264,7.648,8.264c4.796,0,7.713-3.533,7.713-8.167v-17.046c0-0.421,0.323-0.778,0.777-0.778h1.556
		c0.421,0,0.777,0.356,0.777,0.778v17.208c0,6.19-4.407,10.889-10.823,10.889c-6.385,0-10.728-4.731-10.728-10.889v-17.208H481.944z
		"/>
	<path d="M509.588,210.454c0.194-0.259,0.422-0.519,0.616-0.778c0.421-0.519,0.842-0.842,1.426-0.356
		c0.291,0.259,3.24,3.079,6.87,3.079c3.306,0,5.444-2.074,5.444-4.472c0-2.819-2.431-4.472-7.13-6.417
		c-4.472-1.944-7.162-3.792-7.162-8.426c0-2.755,2.204-7.227,8.653-7.227c3.986,0,6.968,2.074,6.968,2.074
		c0.259,0.129,0.745,0.616,0.259,1.394c-0.162,0.259-0.324,0.519-0.486,0.778c-0.356,0.583-0.777,0.745-1.426,0.356
		c-0.291-0.162-2.852-1.88-5.314-1.88c-4.311,0-5.606,2.755-5.606,4.472c0,2.723,2.074,4.311,5.477,5.736
		c5.477,2.236,9.042,4.31,9.042,9.042c0,4.246-4.019,7.324-8.782,7.324c-4.797,0-8.037-2.819-8.588-3.306
		C509.523,211.556,509.102,211.199,509.588,210.454z"/>
	<path d="M533.115,187.023c0-0.421,0.357-0.778,0.778-0.778h1.62c0.422,0,0.778,0.356,0.778,0.778v26.931
		c0,0.421-0.356,0.778-0.778,0.778h-1.62c-0.421,0-0.778-0.356-0.778-0.778V187.023z"/>
	<path d="M557.194,185.824c4.116,0,7.065,1.426,9.852,3.792c0.324,0.324,0.356,0.81,0.033,1.134l-1.103,1.102
		c-0.324,0.421-0.647,0.356-1.069-0.033c-2.106-1.814-4.99-3.046-7.777-3.046c-6.417,0-11.343,5.412-11.343,11.699
		c0,6.255,4.926,11.667,11.343,11.667c3.532,0,5.606-1.426,7.777-3.046c0.422-0.324,0.745-0.292,0.973-0.13l1.231,1.102
		c0.324,0.259,0.259,0.81-0.032,1.102c-2.755,2.69-6.255,3.954-9.885,3.954c-8.134,0-14.681-6.481-14.681-14.615
		C542.514,192.371,549.061,185.824,557.194,185.824z"/>
	<path d="M594.981,185.824c4.116,0,7.064,1.426,9.852,3.792c0.324,0.324,0.356,0.81,0.032,1.134
		c-0.355,0.356-0.81,0.778-1.134,1.134c-0.356,0.421-0.616,0.356-1.069-0.032c-2.074-1.815-4.991-3.176-7.713-3.176
		c-6.417,0-11.311,5.38-11.311,11.667c0,6.254,4.894,11.764,11.311,11.764c4.472,0,7.324-1.718,7.324-1.718v-5.704h-4.667
		c-0.454,0-0.778-0.324-0.778-0.745v-1.491c0-0.454,0.324-0.778,0.778-0.778h7.032c0.422,0,0.745,0.356,0.745,0.778v9.301
		c0,0.194-0.161,0.519-0.323,0.648c0,0-4.148,2.689-10.047,2.689c-8.134,0-14.681-6.481-14.681-14.616
		S586.848,185.824,594.981,185.824z"/>
	<path d="M612.125,187.023c0-0.421,0.324-0.778,0.777-0.778h10.533c4.894,0,8.879,3.824,8.879,8.653
		c0,3.727-2.495,6.871-6.027,8.296l5.574,10.338c0.291,0.519,0,1.167-0.681,1.167h-2.074c-0.356,0-0.583-0.195-0.648-0.356
		l-5.412-10.792h-7.777v10.371c0,0.421-0.356,0.778-0.778,0.778h-1.588c-0.453,0-0.777-0.356-0.777-0.778V187.023z M623.24,200.894
		c3.144,0,5.866-2.593,5.866-5.931c0-3.079-2.723-5.736-5.866-5.736h-7.875v11.667H623.24z"/>
	<path d="M651.532,185.824c8.135,0,14.648,6.546,14.648,14.681c0,8.134-6.514,14.615-14.648,14.615
		c-8.134,0-14.615-6.481-14.615-14.615C636.917,192.37,643.398,185.824,651.532,185.824z M651.532,212.269
		c6.481,0,11.797-5.282,11.797-11.764c0-6.482-5.315-11.829-11.797-11.829s-11.764,5.38-11.764,11.829
		C639.769,206.954,645.083,212.269,651.532,212.269z"/>
	<path d="M672.046,187.023c0-0.421,0.356-0.778,0.778-0.778h1.556c0.453,0,0.777,0.356,0.777,0.778v16.949
		c0,4.634,2.885,8.264,7.648,8.264c4.796,0,7.713-3.533,7.713-8.167v-17.046c0-0.421,0.324-0.778,0.777-0.778h1.556
		c0.422,0,0.778,0.356,0.778,0.778v17.208c0,6.19-4.407,10.889-10.824,10.889c-6.384,0-10.727-4.731-10.727-10.889v-17.208H672.046z
		"/>
	<path d="M701.537,187.023c0-0.421,0.324-0.778,0.777-0.778h8.978c4.99,0,9.106,4.083,9.106,8.977c0,5.056-4.116,9.139-9.074,9.139
		h-6.709v9.56c0,0.421-0.355,0.778-0.777,0.778h-1.556c-0.454,0-0.777-0.356-0.777-0.778v-26.898H701.537z M711.098,201.38
		c3.338,0,6.189-2.723,6.189-6.223c0-3.305-2.852-5.801-6.189-5.801h-6.482v12.023L711.098,201.38L711.098,201.38z"/>
</g>
</svg>
