<?xml version="1.0" encoding="utf-8"?>
<!-- Generator: Adobe Illustrator 16.0.0, SVG Export Plug-In . SVG Version: 6.00 Build 0)  -->
<!DOCTYPE svg PUBLIC "-//W3C//DTD SVG 1.1//EN" "http://www.w3.org/Graphics/SVG/1.1/DTD/svg11.dtd">
<svg version="1.1" id="Layer_1" xmlns="http://www.w3.org/2000/svg" xmlns:xlink="http://www.w3.org/1999/xlink" x="0px" y="0px"
	 width="960.004px" height="306.359px" viewBox="-0.004 126.833 960.004 306.359"
	 enable-background="new -0.004 126.833 960.004 306.359" xml:space="preserve">
<title>LOGO 2</title>
<g id="Layer_2">
	<g id="Layer_1-2">
		<path d="M1.017,251.642l9.617-16.85c1.667-2.633,5.533-2.216,6.967-1.216c0.816,0.417,15.55,11.167,29.05,11.167
			c8.184,0,14.117-5,14.117-12.167c0-8.534-7.15-15-21.066-20.5c-17.6-6.9-39.7-20.5-39.7-44.85
			c0-20.083,15.75-40.383,47.267-40.383c21.283,0,37.733,10.75,43.783,15.217c2.45,1.417,2.05,5,1.233,6.5L81.85,164.175
			c-1.434,2.233-5.184,4.067-6.967,2.667c-1.833-1.017-16.767-12.184-29.25-12.184c-7.367,0-12.9,4.867-12.9,10.35
			c0,7.517,6.15,13.184,22.3,19.684s41.333,18.667,41.333,46.267c0,20.9-18.2,42.017-48.333,42.017
			C21.367,272.975,6.7,262.008,2,257.342C0,255.292-0.617,254.475,1.017,251.642z"/>
		<path d="M162.25,132.725c0-2.126,1.724-3.85,3.85-3.85c0.011,0,0.022,0,0.034,0h84.717c2.126-0.019,3.865,1.69,3.883,3.816
			c0,0.011,0,0.022,0,0.034v22.117c0,2.135-1.731,3.867-3.867,3.867c-0.005,0-0.011,0-0.017,0h-56.667v25.15h46.667
			c2.109,0.068,3.806,1.758,3.883,3.867v22.117c0,2.126-1.724,3.85-3.85,3.85c-0.011,0-0.022,0-0.033,0h-46.667v27.4h56.667
			c2.126-0.019,3.865,1.69,3.883,3.816c0,0.011,0,0.022,0,0.034v22.117c0,2.135-1.731,3.866-3.867,3.866c-0.005,0-0.011,0-0.017,0
			h-84.717c-2.135,0.009-3.874-1.714-3.883-3.85c0-0.006,0-0.011,0-0.017V132.725z"/>
		<path d="M386.083,126.842c40.435-0.249,73.417,32.33,73.666,72.765c0.001,0.189,0.001,0.379,0.001,0.568
			c0,26.384-15.35,50.333-37.85,63.934l26.433,40.899c1.227,1.749,0.804,4.16-0.945,5.387c-0.697,0.489-1.536,0.734-2.388,0.697
			h-27.6c-1.399-0.001-2.684-0.777-3.334-2.017L392.4,272.742c-2.45,0.217-5,0.217-6.35,0.217
			c-40.349,0.609-73.552-31.606-74.162-71.955c-0.609-40.349,31.606-73.552,71.955-74.162c0.736-0.011,1.472-0.011,2.207,0H386.083z
			 M386.083,240.475c22.414-0.074,40.523-18.304,40.449-40.717c-0.074-22.414-18.304-40.523-40.718-40.449
			c-22.413,0.074-40.523,18.304-40.449,40.718c0,0.049,0,0.099,0.001,0.148C345.658,222.473,363.784,240.413,386.083,240.475z"/>
		<path d="M523.983,132.725c0.087-2.109,1.79-3.791,3.9-3.85h25.166c2.126-0.019,3.865,1.69,3.884,3.816c0,0.011,0,0.022,0,0.034
			v82.183c0,14.01,11.356,25.367,25.366,25.367s25.367-11.357,25.367-25.367v-82.183c0.009-2.136,1.747-3.859,3.883-3.85
			c0.006,0,0.011,0,0.017,0h25.101c2.106,0.06,3.805,1.744,3.883,3.85v83.816c0,30.833-26.184,56.417-58.517,56.417
			s-58.116-25.583-58.116-56.417L523.983,132.725z"/>
		<path d="M714.467,132.725c0.009-2.129,1.737-3.85,3.866-3.85h84.7c2.126-0.019,3.865,1.69,3.883,3.816
			c0.001,0.011,0.001,0.022,0.001,0.034v22.117c0,2.135-1.731,3.867-3.867,3.867c-0.005,0-0.011,0-0.017,0h-56.667v25.15h46.667
			c2.109,0.068,3.806,1.758,3.884,3.867v22.117c-0.01,2.135-1.748,3.859-3.884,3.85l0,0h-46.667v27.4h56.667
			c2.126-0.019,3.865,1.69,3.883,3.816c0.001,0.011,0.001,0.022,0.001,0.034v22.117c0,2.135-1.731,3.866-3.867,3.866
			c-0.005,0-0.011,0-0.017,0h-84.7c-2.145,0.009-3.891-1.722-3.899-3.866l0,0L714.467,132.725z"/>
		<path d="M875.283,132.725c0.009-2.136,1.748-3.859,3.883-3.85c0.006,0,0.012,0,0.018,0h24.35c2.106,0.06,3.806,1.744,3.884,3.85
			v108.333h48.7c2.126-0.019,3.864,1.69,3.883,3.816c0,0.022,0,0.045,0,0.067v22.117c0,2.135-1.731,3.866-3.867,3.866
			c-0.005,0-0.011,0-0.016,0h-76.934c-2.145,0.009-3.891-1.722-3.9-3.866l0,0V132.725z"/>
		<path d="M15.25,346.425c0.272-0.954,1.125-1.626,2.117-1.666h1.883c0.872,0.023,1.651,0.55,2,1.35l23.333,67.7h0.583l22.917-67.7
			c0.352-0.797,1.129-1.321,2-1.35h1.883c0.993,0.035,1.849,0.709,2.117,1.666l15.167,82.55c0.35,1.667-0.35,2.95-2.117,2.95h-4.767
			c-0.979-0.074-1.815-0.732-2.117-1.666l-10.467-63.334h-0.466l-21.634,64.917c-0.367,0.776-1.126,1.293-1.983,1.35h-2.117
			c-0.833-0.079-1.562-0.593-1.917-1.35l-21.95-64.9H19.25L9.017,430.175c-0.268,0.957-1.124,1.631-2.117,1.667H2.2
			c-1.767,0-2.467-1.217-2.117-2.95L15.25,346.425z"/>
		<path d="M122.683,348.259c0.016-1.244,0.992-2.264,2.233-2.334h4.467c1.261,0.027,2.261,1.071,2.233,2.332
			c0,0.001,0,0.001,0,0.002v51.233c0,14.017,8.333,25,22.1,25s22.333-10.7,22.333-24.7v-51.533
			c-0.028-1.261,0.972-2.306,2.232-2.334c0,0,0.001,0,0.001,0h4.467c1.246,0.062,2.226,1.086,2.233,2.334v51.916
			c0,18.684-12.7,32.934-31.267,32.934c-18.567,0-31.034-14.2-31.034-32.934V348.259z"/>
		<path d="M219.083,419.025c0.583-0.733,1.167-1.584,1.767-2.334c1.167-1.666,2.466-2.583,4.1-1.1
			c0.833,0.733,9.4,9.333,19.866,9.333c9.517,0,15.75-6.267,15.75-13.517c0-8.467-7.05-13.517-20.566-19.416
			c-12.934-5.884-20.684-11.417-20.684-25.417c0-8.334,6.35-21.884,25-21.884c7.163,0.119,14.14,2.295,20.1,6.267
			c1.322,0.803,1.743,2.525,0.94,3.847c-0.072,0.118-0.152,0.23-0.24,0.337c-0.467,0.733-0.934,1.667-1.4,2.333
			c-0.492,1.35-1.983,2.045-3.333,1.554c-0.286-0.104-0.551-0.258-0.784-0.453c-0.833-0.483-8.233-5.65-15.4-5.65
			c-12.467,0-16.217,8.334-16.217,13.517c0,8.233,5.983,13.033,15.867,17.334c15.9,6.75,26.15,13.066,26.15,27.267
			c0,12.783-11.667,22.116-25.383,22.116c-9.213-0.18-18.039-3.739-24.8-10c-1.315-0.777-1.751-2.475-0.973-3.789
			C218.915,419.248,218.995,419.134,219.083,419.025z"/>
		<path d="M303.483,348.259c0.007-1.248,0.988-2.271,2.233-2.334h4.7c1.242,0.07,2.218,1.09,2.233,2.334v81.333
			c-0.016,1.244-0.991,2.264-2.233,2.333h-4.7c-1.246-0.062-2.226-1.086-2.233-2.333V348.259z"/>
		<path d="M389.517,344.691c11.867,0,20.45,4.3,28.45,11.434c0.969,0.921,1.021,2.449,0.116,3.434l-3.183,3.333
			c-0.934,1.233-1.867,1.117-3.051-0.116c-6.124-5.69-14.095-8.98-22.45-9.267c-18.566,0-32.733,16.383-32.733,35.416
			s14.233,35.267,32.8,35.267c10.233,0,16.217-4.3,22.45-9.217c0.709-0.82,1.921-0.978,2.816-0.366l3.533,3.333
			c0.849,0.968,0.798,2.428-0.116,3.334c-7.498,7.702-17.818,12.007-28.567,11.916c-23.5,0-42.434-19.533-42.434-44.1
			S366.017,344.691,389.517,344.691z"/>
		<path d="M531.667,344.691c11.866,0,20.449,4.3,28.433,11.434c0.979,0.917,1.03,2.452,0.117,3.434
			c-1.05,1.116-2.351,2.333-3.334,3.45c-0.982,1.116-1.767,1.1-3.05-0.134c-6-5.517-14.466-9.583-22.333-9.583
			c-18.583,0-32.684,16.233-32.684,35.267s14.101,35.517,32.684,35.517c7.378,0.132,14.664-1.648,21.15-5.167v-17.2h-13.517
			c-1.206,0.028-2.206-0.927-2.233-2.132c-0.001-0.028-0.001-0.057,0-0.085v-4.55c-0.064-1.223,0.874-2.266,2.097-2.33
			c0.045-0.002,0.091-0.003,0.137-0.003h20.333c1.219,0.08,2.155,1.112,2.116,2.333v28.15c-0.068,0.745-0.399,1.441-0.933,1.967
			c-8.748,5.278-18.767,8.078-28.983,8.1c-23.517,0-42.434-19.533-42.434-44.1C489.233,364.491,508.116,344.691,531.667,344.691z"/>
		<path d="M597.7,348.259c-0.028-1.261,0.972-2.306,2.232-2.334c0,0,0,0,0.001,0h30.433c14.268,0.109,25.744,11.764,25.635,26.03
			c0,0.046,0,0.091-0.001,0.137c-0.203,11.088-7.073,20.959-17.4,25l16.101,31.217c0.681,1.083,0.355,2.513-0.728,3.194
			c-0.381,0.239-0.823,0.363-1.272,0.355h-6.033c-0.784,0.031-1.515-0.399-1.867-1.1l-15.633-32.567H606.75v31.334
			c-0.016,1.243-0.991,2.263-2.233,2.333H600c-1.261-0.027-2.261-1.071-2.233-2.332c0-0.001,0-0.001,0-0.001L597.7,348.259z
			 M629.783,390.175c9.05,0,16.917-7.866,16.917-17.934c-0.067-9.384-7.537-17.038-16.917-17.333h-22.8v35.267H629.783z"/>
		<path d="M728.05,344.691c23.5,0,42.316,19.783,42.316,44.367c0,24.583-18.816,44.1-42.316,44.1s-42.2-19.533-42.2-44.1
			S704.55,344.691,728.05,344.691z M728.05,424.559c18.684,0,34.083-15.967,34.083-35.5s-15.399-35.767-34.083-35.767
			s-33.967,16.233-33.967,35.767S709.366,424.559,728.05,424.559z"/>
		<path d="M803.75,348.259c0.016-1.244,0.991-2.264,2.233-2.334h4.467c1.261,0.027,2.261,1.071,2.233,2.332c0,0.001,0,0.001,0,0.002
			v51.233c0,14.017,8.333,25,22.1,25s22.334-10.7,22.334-24.7v-51.533c-0.028-1.261,0.971-2.306,2.231-2.334
			c0.001,0,0.001,0,0.001,0h4.467c1.246,0.062,2.227,1.086,2.233,2.334v51.916c0,18.684-12.7,32.934-31.267,32.934
			s-31.033-14.25-31.033-32.934V348.259z"/>
		<path d="M905.434,348.259c-0.028-1.261,0.971-2.306,2.232-2.334c0,0,0,0,0.001,0h25.967c14.466,0,26.333,12.283,26.333,27.15
			c0,15.233-11.867,27.649-26.2,27.649h-19.4v28.867c-0.015,1.244-0.991,2.264-2.233,2.333h-4.466
			c-1.261-0.027-2.261-1.071-2.233-2.332v-0.001V348.259z M933.05,391.592c10.122-0.255,18.122-8.666,17.867-18.788
			c0-0.004,0-0.008,0-0.012c-0.073-9.775-8.058-17.641-17.832-17.567c-0.012,0-0.023,0-0.035,0h-18.684v36.367H933.05z"/>
	</g>
</g>
</svg>
